<?xml version="1.0" encoding="utf-8"?>
<!-- Generator: Adobe Illustrator 25.2.1, SVG Export Plug-In . SVG Version: 6.00 Build 0)  -->
<svg version="1.1" id="Ebene_1" xmlns="http://www.w3.org/2000/svg" xmlns:xlink="http://www.w3.org/1999/xlink" x="0px" y="0px"
	 viewBox="0 0 580.82 580.82" style="enable-background:new 0 0 580.82 580.82;" xml:space="preserve">
<style type="text/css">
	.Grün_x0020_bogenförmig{fill:url(#SVGID_1_);stroke:#FFFFFF;stroke-width:0.25;stroke-miterlimit:1;}
	.st0{fill:#00A4DE;}
	.st1{fill:#FFFFFF;}
</style>
<linearGradient id="SVGID_1_" gradientUnits="userSpaceOnUse" x1="-127.3078" y1="580.4426" x2="-126.6007" y2="579.7355">
	<stop  offset="0" style="stop-color:#1BA138"/>
	<stop  offset="0.9831" style="stop-color:#23391D"/>
</linearGradient>
<g>
	<g>
		<polygon class="st0" points="96.9,164.15 96.9,258.59 84.6,258.59 84.6,308.33 42.65,258.59 27.68,258.59 27.68,322.29 
			39.6,322.29 39.6,272.55 81.55,322.29 96.9,322.29 96.9,416.67 349.43,416.67 349.43,164.15 		"/>
		<rect x="2.69" y="258.6" class="st0" width="11.91" height="63.69"/>
	</g>
	<g>
		<polygon class="st1" points="195.03,285.87 171.76,259.18 156.62,259.18 189.41,295.64 189.41,321.71 200.65,321.71 
			200.65,295.64 233.44,259.18 218.3,259.18 		"/>
		<g>
			<path class="st1" d="M140.55,285.37h-26.54c-4.72,0-8.57-3.78-8.57-8.44c0-4.72,3.84-8.56,8.57-8.56h39.07v-9.81h-39.07
				c-10.21,0-18.51,8.3-18.51,18.51c0,10.13,8.3,18.38,18.51,18.38h26.54c4.72,0,8.57,3.78,8.57,8.43c0,4.72-3.84,8.56-8.57,8.56
				H96.93v9.82h43.62c10.2,0,18.51-8.3,18.51-18.5C159.06,293.62,150.76,285.37,140.55,285.37"/>
			<path class="st1" d="M279.37,285.37h-26.55c-4.72,0-8.57-3.78-8.57-8.44c0-4.72,3.85-8.56,8.57-8.56h39.07v-9.81h-39.07
				c-10.2,0-18.51,8.3-18.51,18.51c0,10.13,8.3,18.38,18.51,18.38h26.55c4.72,0,8.57,3.78,8.57,8.43c0,4.72-3.84,8.56-8.57,8.56
				h-43.62v9.82h43.62c10.2,0,18.51-8.3,18.51-18.5C297.88,293.62,289.58,285.37,279.37,285.37"/>
		</g>
	</g>
	<path class="st0" d="M466.1,282.55c-8.77,0-15.7,6.85-15.7,14.83c0,7.98,7.17,14.92,15.93,14.92h2.19
		c8.77,0,15.89-6.95,15.89-14.92c0-7.98-7.03-14.83-15.8-14.83H466.1z M466.34,322.62c-15.07,0-27.94-11.53-27.94-25.24
		c0-13.71,12.87-25.14,27.94-25.14h2.19c15.07,0,27.89,11.43,27.89,25.14c0,13.71-12.82,25.24-27.89,25.24H466.34z"/>
	<path class="st0" d="M556.32,272.1c-5.98,0-11.38,2.3-15.2,5.98c-3.82-3.68-9.21-5.98-15.2-5.98c-11.53,0-20.91,8.54-20.91,19.03
		v31.19h11.43v-31.19c0-4.76,4.25-8.63,9.48-8.63c5.23,0,9.48,3.87,9.48,8.63v31.19h11.43v-31.19c0-4.76,4.25-8.63,9.48-8.63
		c5.23,0,9.48,3.87,9.48,8.63v31.19h11.43v-31.19C577.23,280.64,567.85,272.1,556.32,272.1"/>
	<rect x="366.23" y="272.42" class="st0" width="11.43" height="49.87"/>
	<rect x="366.23" y="254.91" class="st0" width="11.43" height="10.57"/>
	<g>
		<path class="st0" d="M432.77,322.3h-18.59c-15.07,0-27.33-11.16-27.33-24.87c0-13.71,12.26-24.87,27.33-24.87h18.59v10.4h-18.59
			c-8.77,0-15.9,6.49-15.9,14.47c0,7.98,7.13,14.47,15.9,14.47h18.59V322.3z"/>
	</g>
</g>
</svg>
