<?xml version="1.0" encoding="UTF-8" standalone="no" ?>
<!DOCTYPE svg PUBLIC "-//W3C//DTD SVG 1.1//EN" "http://www.w3.org/Graphics/SVG/1.1/DTD/svg11.dtd">
<svg xmlns="http://www.w3.org/2000/svg" xmlns:xlink="http://www.w3.org/1999/xlink" version="1.1" width="441" height="196" viewBox="0 0 441 196" xml:space="preserve">
<desc>Created with Fabric.js 3.6.3</desc>
<defs>
</defs>
<g transform="matrix(0.77 0 0 0.77 220.82 98.18)"  >
<g style=""   >
		<g transform="matrix(1 0 0 1 -101.86 0)"  >
<polygon style="stroke: none; stroke-width: 1; stroke-dasharray: none; stroke-linecap: butt; stroke-dashoffset: 0; stroke-linejoin: miter; stroke-miterlimit: 4; fill: rgb(0,164,222); fill-rule: nonzero; opacity: 1;"  points="-91.66,-126.26 -91.66,-31.82 -103.96,-31.82 -103.96,17.92 -145.91,-31.82 -160.88,-31.82 -160.88,31.88 -148.96,31.88 -148.96,-17.86 -107.01,31.88 -91.66,31.88 -91.66,126.26 160.88,126.26 160.88,-126.26 " />
</g>
		<g transform="matrix(1 0 0 1 -281.77 0.03)"  >
<rect style="stroke: none; stroke-width: 1; stroke-dasharray: none; stroke-linecap: butt; stroke-dashoffset: 0; stroke-linejoin: miter; stroke-miterlimit: 4; fill: rgb(0,164,222); fill-rule: nonzero; opacity: 1;"  x="-5.955" y="-31.845" rx="0" ry="0" width="11.91" height="63.69" />
</g>
		<g transform="matrix(1 0 0 1 -95.38 0.03)"  >
<polygon style="stroke: none; stroke-width: 1; stroke-dasharray: none; stroke-linecap: butt; stroke-dashoffset: 0; stroke-linejoin: miter; stroke-miterlimit: 4; fill: rgb(255,255,255); fill-rule: nonzero; opacity: 1;"  points="0,-4.57 -23.27,-31.26 -38.41,-31.26 -5.62,5.19 -5.62,31.26 5.62,31.26 5.62,5.19 38.41,-31.26 23.27,-31.26 " />
</g>
		<g transform="matrix(1 0 0 1 -163.13 0)"  >
<path style="stroke: none; stroke-width: 1; stroke-dasharray: none; stroke-linecap: butt; stroke-dashoffset: 0; stroke-linejoin: miter; stroke-miterlimit: 4; fill: rgb(255,255,255); fill-rule: nonzero; opacity: 1;"  transform=" translate(-127.28, -290.41)" d="M 140.55 285.37 h -26.54 c -4.72 0 -8.57 -3.78 -8.57 -8.44 c 0 -4.72 3.84 -8.56 8.57 -8.56 h 39.07 v -9.81 h -39.07 c -10.21 0 -18.51 8.3 -18.51 18.51 c 0 10.13 8.3 18.38 18.51 18.38 h 26.54 c 4.72 0 8.57 3.78 8.57 8.43 c 0 4.72 -3.84 8.56 -8.57 8.56 H 96.93 v 9.82 h 43.62 c 10.2 0 18.51 -8.3 18.51 -18.5 C 159.06 293.62 150.76 285.37 140.55 285.37" stroke-linecap="round" />
</g>
		<g transform="matrix(1 0 0 1 -24.32 0)"  >
<path style="stroke: none; stroke-width: 1; stroke-dasharray: none; stroke-linecap: butt; stroke-dashoffset: 0; stroke-linejoin: miter; stroke-miterlimit: 4; fill: rgb(255,255,255); fill-rule: nonzero; opacity: 1;"  transform=" translate(-266.1, -290.41)" d="M 279.37 285.37 h -26.55 c -4.72 0 -8.57 -3.78 -8.57 -8.44 c 0 -4.72 3.85 -8.56 8.57 -8.56 h 39.07 v -9.81 h -39.07 c -10.2 0 -18.51 8.3 -18.51 18.51 c 0 10.13 8.3 18.38 18.51 18.38 h 26.55 c 4.72 0 8.57 3.78 8.57 8.43 c 0 4.72 -3.84 8.56 -8.57 8.56 h -43.62 v 9.82 h 43.62 c 10.2 0 18.51 -8.3 18.51 -18.5 C 297.88 293.62 289.58 285.37 279.37 285.37" stroke-linecap="round" />
</g>
		<g transform="matrix(1 0 0 1 177 7.02)"  >
<path style="stroke: none; stroke-width: 1; stroke-dasharray: none; stroke-linecap: butt; stroke-dashoffset: 0; stroke-linejoin: miter; stroke-miterlimit: 4; fill: rgb(0,164,222); fill-rule: nonzero; opacity: 1;"  transform=" translate(-467.41, -297.43)" d="M 466.1 282.55 c -8.77 0 -15.7 6.85 -15.7 14.83 c 0 7.98 7.17 14.92 15.93 14.92 h 2.19 c 8.77 0 15.89 -6.95 15.89 -14.92 c 0 -7.98 -7.03 -14.83 -15.8 -14.83 H 466.1 z M 466.34 322.62 c -15.07 0 -27.94 -11.53 -27.94 -25.24 c 0 -13.71 12.87 -25.14 27.94 -25.14 h 2.19 c 15.07 0 27.89 11.43 27.89 25.14 c 0 13.71 -12.82 25.24 -27.89 25.24 H 466.34 z" stroke-linecap="round" />
</g>
		<g transform="matrix(1 0 0 1 250.71 6.8)"  >
<path style="stroke: none; stroke-width: 1; stroke-dasharray: none; stroke-linecap: butt; stroke-dashoffset: 0; stroke-linejoin: miter; stroke-miterlimit: 4; fill: rgb(0,164,222); fill-rule: nonzero; opacity: 1;"  transform=" translate(-541.12, -297.21)" d="M 556.32 272.1 c -5.98 0 -11.38 2.3 -15.2 5.98 c -3.82 -3.68 -9.21 -5.98 -15.2 -5.98 c -11.53 0 -20.91 8.54 -20.91 19.03 v 31.19 h 11.43 v -31.19 c 0 -4.76 4.25 -8.63 9.48 -8.63 c 5.23 0 9.48 3.87 9.48 8.63 v 31.19 h 11.43 v -31.19 c 0 -4.76 4.25 -8.63 9.48 -8.63 c 5.23 0 9.48 3.87 9.48 8.63 v 31.19 h 11.43 v -31.19 C 577.23 280.64 567.85 272.1 556.32 272.1" stroke-linecap="round" />
</g>
		<g transform="matrix(1 0 0 1 81.53 6.95)"  >
<rect style="stroke: none; stroke-width: 1; stroke-dasharray: none; stroke-linecap: butt; stroke-dashoffset: 0; stroke-linejoin: miter; stroke-miterlimit: 4; fill: rgb(0,164,222); fill-rule: nonzero; opacity: 1;"  x="-5.715" y="-24.935" rx="0" ry="0" width="11.43" height="49.87" />
</g>
		<g transform="matrix(1 0 0 1 81.53 -30.21)"  >
<rect style="stroke: none; stroke-width: 1; stroke-dasharray: none; stroke-linecap: butt; stroke-dashoffset: 0; stroke-linejoin: miter; stroke-miterlimit: 4; fill: rgb(0,164,222); fill-rule: nonzero; opacity: 1;"  x="-5.715" y="-5.285" rx="0" ry="0" width="11.43" height="10.57" />
</g>
		<g transform="matrix(1 0 0 1 119.4 7.02)"  >
<path style="stroke: none; stroke-width: 1; stroke-dasharray: none; stroke-linecap: butt; stroke-dashoffset: 0; stroke-linejoin: miter; stroke-miterlimit: 4; fill: rgb(0,164,222); fill-rule: nonzero; opacity: 1;"  transform=" translate(-409.81, -297.43)" d="M 432.77 322.3 h -18.59 c -15.07 0 -27.33 -11.16 -27.33 -24.87 c 0 -13.71 12.26 -24.87 27.33 -24.87 h 18.59 v 10.4 h -18.59 c -8.77 0 -15.9 6.49 -15.9 14.47 c 0 7.98 7.13 14.47 15.9 14.47 h 18.59 V 322.3 z" stroke-linecap="round" />
</g>
</g>
</g>
</svg>